<svg width="171" height="36" viewBox="0 0 171 36" fill="none" xmlns="http://www.w3.org/2000/svg">
<g clip-path="url(#clip0_3934_348)">
<path d="M122.873 35.8979L120.335 30.0317H121.809L124.019 35.2274H123.157L125.401 30.0317H126.749L124.211 35.8979H122.871H122.873Z" fill="#F15A29"/>
<path d="M129.087 34.8092H132.276V35.898H127.737V30.0317H132.166V31.1225H129.085V34.8092H129.087ZM128.987 32.3874H131.808V33.4522H128.987V32.3874Z" fill="#F15A29"/>
<path d="M133.861 35.898V30.0317H134.983L138.44 34.2568H137.896V30.0317H139.236V35.898H138.114L134.657 31.6749H135.201V35.898H133.861Z" fill="#F15A29"/>
<path d="M142.345 35.898V31.1385H140.469V30.0317H145.577V31.1385H143.701V35.898H142.343H142.345Z" fill="#F15A29"/>
<path d="M149.313 36C148.481 36 147.831 35.7678 147.363 35.3035C146.893 34.8392 146.659 34.1747 146.659 33.3081V30.0317H148.023V33.276C148.023 33.8284 148.137 34.2307 148.367 34.4789C148.597 34.7271 148.915 34.8512 149.321 34.8512C149.726 34.8512 150.054 34.7271 150.284 34.4789C150.512 34.2307 150.628 33.8284 150.628 33.276V30.0317H151.96V33.3081C151.96 34.1747 151.726 34.8392 151.256 35.3035C150.786 35.7678 150.14 36 149.315 36H149.313Z" fill="#F15A29"/>
<path d="M153.809 35.898V30.0317H156.347C156.871 30.0317 157.325 30.1178 157.705 30.2879C158.085 30.458 158.377 30.7022 158.583 31.0204C158.789 31.3387 158.893 31.7169 158.893 32.1512C158.893 32.5856 158.789 32.9718 158.583 33.2861C158.377 33.6023 158.083 33.8425 157.705 34.0066C157.325 34.1707 156.873 34.2528 156.347 34.2528H154.555L155.175 33.6663V35.896H153.811L153.809 35.898ZM155.175 33.8205L154.555 33.176H156.271C156.683 33.176 156.997 33.0859 157.209 32.9078C157.421 32.7297 157.527 32.4775 157.527 32.1532C157.527 31.829 157.421 31.5788 157.209 31.4027C156.997 31.2266 156.685 31.1385 156.271 31.1385H154.555L155.175 30.494V33.8205ZM157.545 35.898L156.071 33.7684H157.529L159.003 35.898H157.545Z" fill="#F15A29"/>
<path d="M161.814 34.8091H165.004V35.8979H160.464V30.0317H164.894V31.1225H161.812V34.8091H161.814ZM161.714 32.3874H164.536V33.4522H161.714V32.3874Z" fill="#F15A29"/>
<path d="M168.522 36C168.052 36 167.602 35.938 167.17 35.8119C166.738 35.6858 166.39 35.5217 166.128 35.3215L166.588 34.2988C166.834 34.4769 167.13 34.625 167.476 34.7391C167.822 34.8532 168.172 34.9112 168.524 34.9112C168.792 34.9112 169.008 34.8832 169.172 34.8272C169.336 34.7711 169.458 34.6971 169.536 34.605C169.614 34.5129 169.654 34.4048 169.654 34.2828C169.654 34.1266 169.592 34.0026 169.47 33.9105C169.346 33.8184 169.184 33.7424 168.98 33.6843C168.776 33.6263 168.554 33.5702 168.314 33.5162C168.074 33.4622 167.832 33.3981 167.59 33.3241C167.348 33.248 167.124 33.1479 166.92 33.0219C166.716 32.8958 166.554 32.7316 166.434 32.5275C166.314 32.3233 166.254 32.0692 166.254 31.7609C166.254 31.4247 166.342 31.1205 166.522 30.8423C166.7 30.5661 166.974 30.3459 167.338 30.1798C167.704 30.0157 168.162 29.9316 168.716 29.9316C169.084 29.9316 169.448 29.9756 169.808 30.0657C170.168 30.1558 170.482 30.2839 170.75 30.452L170.322 31.4747C170.06 31.3246 169.788 31.2105 169.51 31.1345C169.23 31.0584 168.962 31.0204 168.706 31.0204C168.45 31.0204 168.224 31.0504 168.062 31.1085C167.9 31.1665 167.782 31.2466 167.706 31.3466C167.63 31.4467 167.592 31.5588 167.592 31.6809C167.592 31.837 167.654 31.9631 167.776 32.0572C167.898 32.1512 168.06 32.2273 168.262 32.2793C168.462 32.3334 168.686 32.3854 168.932 32.4394C169.178 32.4935 169.42 32.5575 169.66 32.6356C169.9 32.7136 170.12 32.8137 170.322 32.9338C170.522 33.0539 170.686 33.216 170.812 33.4201C170.938 33.6243 171 33.8765 171 34.1787C171 34.5089 170.91 34.8091 170.728 35.0833C170.546 35.3575 170.272 35.5777 169.904 35.7458C169.536 35.9139 169.074 35.998 168.522 35.998V36Z" fill="#F15A29"/>
<path d="M29.4113 27.4158C29.4113 28.1043 29.2753 28.7508 29.0013 29.3592C28.7293 29.9656 28.3593 30.498 27.8953 30.9524C27.4294 31.4087 26.8934 31.7669 26.2874 32.0311C25.6814 32.2933 25.0334 32.4254 24.3454 32.4254H12.3937V35.9159H24.3454C25.5174 35.9159 26.6194 35.6878 27.6513 35.2334C28.6833 34.7771 29.5873 34.1667 30.3653 33.3981C31.1433 32.6296 31.7553 31.7289 32.2012 30.6962C32.6452 29.6654 32.8692 28.5606 32.8692 27.3878V26.5312H29.4113V27.4178V27.4158Z" fill="#0CAE4B"/>
<path d="M29.4113 4.65736V14.0602H12.3937V17.5207H29.4113V24.856H32.8672V4.65736H29.4113Z" fill="#184A92"/>
<path d="M3.48792 35.9139V26.5111H20.4735V23.0506H3.48792V13.1255C3.48792 12.457 3.62391 11.8205 3.89791 11.2121C4.1699 10.6057 4.53989 10.0733 5.00388 9.61895C5.46987 9.16462 6.00586 8.80436 6.61184 8.54217C7.21783 8.27998 7.86581 8.14788 8.5538 8.14788H20.4735V4.65736H8.5538C7.35983 4.65736 6.24785 4.87952 5.21788 5.32585C4.1859 5.77017 3.28192 6.38261 2.50394 7.16317C1.72596 7.94174 1.11397 8.84839 0.669983 9.87914C0.225994 10.9099 0.0019989 12.0147 0.0019989 13.1875V35.9159H3.48992L3.48792 35.9139Z" fill="#184A92"/>
<path d="M24.7774 0L27.0314 2.25763H35.2672V10.4996L37.5231 12.7552V0H24.7774Z" fill="#F15A29"/>
<path d="M47.4932 25.8767C45.9012 25.3563 44.5253 24.6258 43.3633 23.6831L45.9152 20.1065C47.7772 21.5696 49.9491 22.3001 52.4331 22.3001C53.675 22.3001 54.661 22.09 55.391 21.6697C56.121 21.2494 56.487 20.6769 56.487 19.9564C56.487 19.2759 56.147 18.7435 55.465 18.3633C54.785 17.983 53.703 17.7128 52.2211 17.5527C49.3571 17.2325 47.2612 16.56 45.9292 15.5392C44.5972 14.5165 43.9313 13.0554 43.9313 11.1521C43.9313 9.86914 44.2913 8.73832 45.0132 7.75561C45.7332 6.7749 46.7452 6.01235 48.0472 5.47196C49.3491 4.93157 50.8491 4.66138 52.5511 4.66138C54.013 4.66138 55.439 4.87153 56.831 5.29183C58.2229 5.71214 59.4489 6.30456 60.5109 7.06511L58.1989 10.5216C56.557 9.37878 54.745 8.80837 52.7631 8.80837C51.5411 8.80837 50.5651 9.00852 49.8351 9.4088C49.1031 9.80909 48.7392 10.3515 48.7392 11.032C48.7392 11.7125 49.0551 12.2048 49.6851 12.5651C50.3151 12.9253 51.3711 13.1955 52.8531 13.3757C55.695 13.6959 57.8189 14.4024 59.2209 15.4952C60.6229 16.588 61.3229 18.0851 61.3229 19.9884C61.3229 21.3114 60.9529 22.4782 60.2109 23.489C59.4689 24.5017 58.4289 25.2823 57.087 25.8327C55.745 26.3831 54.203 26.6593 52.4611 26.6593C50.7191 26.6593 49.0831 26.3991 47.4912 25.8767H47.4932Z" fill="#184A92"/>
<path d="M81.4144 11.3302H86.4003L81.4444 26.1769H76.9705L75.7385 22.5403L74.0266 17.7608L72.3146 22.5403L71.0826 26.1769H66.5787L61.6228 11.3302H66.6087L67.9307 15.8995L69.0727 20.4668L72.4666 11.3302H75.5905L78.9844 20.4968L80.1264 15.8995L81.4184 11.3302H81.4144Z" fill="#184A92"/>
<path d="M103.218 11.3302V26.1769H99.134L98.834 24.4036C97.572 25.7866 95.9301 26.4771 93.9081 26.4771C92.5261 26.4771 91.3002 26.1509 90.2282 25.5004C89.1562 24.85 88.3202 23.9373 87.7202 22.7665C87.1203 21.5936 86.8203 20.2566 86.8203 18.7536C86.8203 17.2505 87.1203 15.9135 87.7202 14.7407C88.3202 13.5678 89.1562 12.6572 90.2282 12.0067C91.2982 11.3562 92.5261 11.03 93.9081 11.03C94.9081 11.03 95.8301 11.2061 96.672 11.5564C97.512 11.9066 98.234 12.413 98.834 13.0735L99.134 11.3302H103.218ZM97.572 21.4735C98.232 20.783 98.564 19.8764 98.564 18.7536C98.564 17.6307 98.234 16.7241 97.572 16.0336C96.912 15.3431 96.0601 14.9968 95.0201 14.9968C93.9801 14.9968 93.1321 15.3471 92.4821 16.0496C91.8322 16.7501 91.5062 17.6528 91.5062 18.7536C91.5062 19.8543 91.8322 20.757 92.4821 21.4595C93.1321 22.16 93.9781 22.5123 95.0201 22.5123C96.062 22.5123 96.912 22.166 97.572 21.4755V21.4735Z" fill="#184A92"/>
<path d="M114.992 19.2339H112.14V26.1769H107.214V5.13972H117.456C118.978 5.13972 120.309 5.43594 121.449 6.02636C122.591 6.61679 123.471 7.45339 124.093 8.53618C124.713 9.61896 125.023 10.8599 125.023 12.2629C125.023 13.866 124.607 15.239 123.777 16.3798C122.947 17.5227 121.769 18.3333 120.249 18.8136L126.195 26.1769H120.339L114.994 19.2339H114.992ZM119.3 10.1273C118.73 9.60695 117.924 9.34476 116.882 9.34476H112.106V15.265H116.882C117.944 15.265 118.754 15.0089 119.314 14.4985C119.873 13.9881 120.153 13.2616 120.153 12.3189C120.153 11.3762 119.867 10.6457 119.298 10.1253L119.3 10.1273Z" fill="#184A92"/>
<path d="M143.311 11.3302V26.177H139.227L138.927 24.4037C137.665 25.7867 136.023 26.4772 134.001 26.4772C132.619 26.4772 131.393 26.151 130.321 25.5005C129.249 24.85 128.413 23.9374 127.813 22.7665C127.213 21.5937 126.913 20.2567 126.913 18.7536C126.913 17.2505 127.213 15.9136 127.813 14.7407C128.413 13.5679 129.249 12.6572 130.321 12.0067C131.391 11.3563 132.619 11.03 134.001 11.03C135.003 11.03 135.923 11.2062 136.765 11.5564C137.605 11.9067 138.327 12.413 138.927 13.0735L139.227 11.3302H143.311ZM137.665 21.4736C138.325 20.7831 138.657 19.8764 138.657 18.7536C138.657 17.6308 138.327 16.7241 137.665 16.0336C137.005 15.3431 136.153 14.9969 135.113 14.9969C134.073 14.9969 133.225 15.3471 132.575 16.0497C131.925 16.7502 131.599 17.6528 131.599 18.7536C131.599 19.8544 131.925 20.7571 132.575 21.4596C133.225 22.1601 134.071 22.5123 135.113 22.5123C136.155 22.5123 137.005 22.1661 137.665 21.4756V21.4736Z" fill="#184A92"/>
<path d="M169.38 12.6532C170.462 13.756 171.002 15.2671 171.002 17.1925V26.179H166.286V17.7929C166.286 16.9123 166.08 16.2258 165.67 15.7334C165.26 15.2431 164.684 14.9969 163.944 14.9969C163.122 14.9969 162.472 15.2771 161.992 15.8375C161.512 16.3979 161.272 17.1404 161.272 18.0611V26.175H156.588V17.7889C156.588 16.9083 156.388 16.2218 155.988 15.7294C155.588 15.2391 155.016 14.9929 154.276 14.9929C153.454 14.9929 152.8 15.2731 152.308 15.8335C151.818 16.3939 151.572 17.1364 151.572 18.0571V26.171H146.856V11.3302H150.94L151.21 12.9834C151.73 12.343 152.356 11.8526 153.086 11.5104C153.816 11.1701 154.602 11 155.444 11C156.406 11 157.266 11.2061 158.026 11.6164C158.786 12.0267 159.388 12.5932 159.828 13.3137C161.03 11.7706 162.732 11 164.934 11C166.816 11 168.298 11.5504 169.378 12.6532H169.38Z" fill="#184A92"/>
</g>
<defs>
<clipPath id="clip0_3934_348">
<rect width="171" height="36" fill="white"/>
</clipPath>
</defs>
</svg>
